<?xml version="1.0" encoding="utf-8"?>
<!-- Generator: Adobe Illustrator 15.0.2, SVG Export Plug-In . SVG Version: 6.00 Build 0)  -->
<!DOCTYPE svg PUBLIC "-//W3C//DTD SVG 1.1//EN" "http://www.w3.org/Graphics/SVG/1.1/DTD/svg11.dtd">
<svg version="1.1" id="Layer_1" xmlns="http://www.w3.org/2000/svg" xmlns:xlink="http://www.w3.org/1999/xlink" x="0px" y="0px"
	 width="1600px" height="360px" viewBox="0 0 1600 360" enable-background="new 0 0 1600 360" xml:space="preserve">
<path fill="none" stroke="#000000" stroke-width="8" stroke-miterlimit="10" d="M1083,246.715c0,0,114-43.715,111-76.715
	s-49-14-71,12s-29.947,73.43,21.526,64.715S1256.5,189.161,1265,146.081c0.086-5.393-7.198,0-9,3.419c-3.5,15,13,13.5,17.5,14.5
	s14.5-5.5,21,0s0.5,7.5-17,35s-22.834,61.388,17.5,44.36s77.984-76.927,82-97.28c0.086-5.393-7.198,0-9,3.419
	c-3.5,15,12.891,14.5,17.5,14.5c11.5,0,16-5,21,0s0.5,7.5-17,35s-35.193,54.669,4.153,48.668s78.681-78.001,78.681-78.001
	s-52.666,71.387-12,73.693S1543,210.334,1565.667,179c22.667-31.333-4.203-30.971-14-2s-71.999,138.665-99.333,155.333
	s-44.666,9.999-38-6s27.334-28.668,49.333-42s70.667-25.333,96-57.333"/>
<path fill="none" stroke="#000000" stroke-width="8.8418" stroke-miterlimit="10" d="M1056.729,123.905
	c14.479,9.205,35.968,18.572,60.454,15.256c44.904-6.083,51.35-52.179,51.35-52.179c8.266-95.117-98.388-62.276-116.627-56.796
	S1032.771,58,1048.681,61"/>
<path fill="none" stroke="#000000" stroke-width="8.8418" stroke-miterlimit="10" d="M1075.369,24.984
	c-1.967,42.083-31.496,149.402-44.906,201.248c-2.391,9.239-5.284,16.112-8.471,21.128"/>
<path fill="none" stroke="#000000" stroke-width="8" stroke-miterlimit="10" d="M577,136c9.5,0,4.5,9,0,9S567.5,136,577,136z"/>
<path fill="none" stroke="#000000" stroke-width="8" stroke-miterlimit="10" d="M291,244.715c0,0,114-43.715,111-76.715
	s-49-14-71,12s-29.947,73.43,21.526,64.715S589,103,552,72S431.765,212.987,431,229c-1,20.929,30,16,30,16s50.709-9,95.854-72
	S488,244,533,240s126-67,136-92s-25-1-12,31s10,69-32.5,62.25S586.889,210.811,587,209c1-18-5,124,178-58c14.241-20.137-30-15-13,29
	c13,32,10,69-32.5,62.25S681.889,211.811,682,210c0.895-16.104,6,97,122-17c0,0,38-42.96,82-35.98s0,49.48,0,49.48
	s42.668-46.167,0.334-48.167c0,0-33.667-6.667-80.667,36s9.999,63,35.333,45.667s67.001-55.667,85.334-59.667
	s-113.333,63.001-37,62.334"/>
<path fill="none" stroke="#000000" stroke-width="8" stroke-miterlimit="10" d="M24.583,235.5C23.667,244.5,25,254,34,256
	c18,4,60.847-14.162,103.613-74.911c42.767-60.749,56.901-80.761,79.336-112.818C240,35.333,184,176.365,192,246.183
	c0,0-9.203-48.292,138-162.183c51.7-40-126,94,0,246"/>
</svg>
